<svg viewBox="0 0 1000 580" xmlns="http://www.w3.org/2000/svg" font-family="IBM Plex Sans, Arial, sans-serif">
<rect x="0" y="0" width="1000" height="580" fill="#ffffff"/>
<rect x="0.5" y="0.5" width="999" height="579" fill="none" stroke="#c7cfc9"/>
<text x="24" y="34" font-family="IBM Plex Sans, Arial, sans-serif" font-size="20" font-weight="700" fill="#2b3330">Finance / Compta -- Fournisseurs et SIREN</text>
<text x="976" y="34" text-anchor="end" font-family="IBM Plex Mono, monospace" font-size="12" fill="#6b7a73">page 3 / 3</text>
<line x1="24" y1="46" x2="976" y2="46" stroke="#c7cfc9" stroke-width="1.5"/>
<text x="976" y="566" text-anchor="end" font-family="IBM Plex Mono, monospace" font-size="10.5" fill="#6b7a73">wireframe -- pas une capture reelle, a remplacer une fois le rapport construit</text>
<rect x="24" y="54" width="61" height="20" rx="10" fill="#f3f5f3" stroke="#c7cfc9"/><text x="55" y="68" text-anchor="middle" font-family="IBM Plex Mono, monospace" font-size="9.5" fill="#6b7a73">Periode</text><rect x="93.4" y="54" width="61" height="20" rx="10" fill="#f3f5f3" stroke="#c7cfc9"/><text x="124" y="68" text-anchor="middle" font-family="IBM Plex Mono, monospace" font-size="9.5" fill="#6b7a73">Domaine</text><rect x="162.8" y="54" width="43" height="20" rx="10" fill="#f3f5f3" stroke="#c7cfc9"/><text x="184" y="68" text-anchor="middle" font-family="IBM Plex Mono, monospace" font-size="9.5" fill="#6b7a73">Role</text>
<rect x="24" y="84" width="228" height="70" rx="6" fill="#f3f5f3" stroke="#c7cfc9"/>
<text x="34" y="102" font-family="IBM Plex Mono, monospace" font-size="10.5" font-weight="600" letter-spacing="0.4" fill="#1f6f68">SCORECARD</text>

<text x="138.0" y="125.0" text-anchor="middle" font-family="IBM Plex Mono, monospace" font-size="22" font-weight="700" fill="#2b3330">80</text>
<text x="138.0" y="144" text-anchor="middle" font-family="IBM Plex Sans, Arial, sans-serif" font-size="10" fill="#6b7a73">Fournisseurs</text>

<rect x="260" y="84" width="228" height="70" rx="6" fill="#f3f5f3" stroke="#c7cfc9"/>
<text x="270" y="102" font-family="IBM Plex Mono, monospace" font-size="10.5" font-weight="600" letter-spacing="0.4" fill="#1f6f68">SCORECARD</text>

<text x="374.0" y="125.0" text-anchor="middle" font-family="IBM Plex Mono, monospace" font-size="22" font-weight="700" fill="#2b3330">1 (1,3 %)</text>
<text x="374.0" y="144" text-anchor="middle" font-family="IBM Plex Sans, Arial, sans-serif" font-size="10" fill="#6b7a73">SIREN invalides</text>

<rect x="496" y="84" width="228" height="70" rx="6" fill="#f3f5f3" stroke="#c7cfc9"/>
<text x="506" y="102" font-family="IBM Plex Mono, monospace" font-size="10.5" font-weight="600" letter-spacing="0.4" fill="#1f6f68">SCORECARD</text>

<text x="610.0" y="125.0" text-anchor="middle" font-family="IBM Plex Mono, monospace" font-size="22" font-weight="700" fill="#2b3330">role_finance seul</text>
<text x="610.0" y="144" text-anchor="middle" font-family="IBM Plex Sans, Arial, sans-serif" font-size="10" fill="#6b7a73">IBAN visible</text>

<rect x="24" y="166" width="952" height="300" rx="6" fill="#f3f5f3" stroke="#c7cfc9"/>
<text x="34" y="184" font-family="IBM Plex Mono, monospace" font-size="10.5" font-weight="600" letter-spacing="0.4" fill="#1f6f68">MATRICE -- FOURNISSEURS, SIREN NORMALISE + FLAG VALIDITE (IBAN MASQUE POUR ROLE_DIRECTION)</text>
<rect x="36" y="192" width="928" height="52.4" fill="#c7cfc9" opacity="0.6"/><line x1="36" y1="192.0" x2="964" y2="192.0" stroke="#c7cfc9"/><line x1="36" y1="244.4" x2="964" y2="244.4" stroke="#c7cfc9"/><line x1="36" y1="296.8" x2="964" y2="296.8" stroke="#c7cfc9"/><line x1="36" y1="349.2" x2="964" y2="349.2" stroke="#c7cfc9"/><line x1="36" y1="401.6" x2="964" y2="401.6" stroke="#c7cfc9"/><line x1="36.0" y1="192" x2="36.0" y2="454.0" stroke="#c7cfc9"/><line x1="268.0" y1="192" x2="268.0" y2="454.0" stroke="#c7cfc9"/><line x1="500.0" y1="192" x2="500.0" y2="454.0" stroke="#c7cfc9"/><line x1="732.0" y1="192" x2="732.0" y2="454.0" stroke="#c7cfc9"/><line x1="964.0" y1="192" x2="964.0" y2="454.0" stroke="#c7cfc9"/><line x1="42.0" y1="275.8" x2="169.6" y2="275.8" stroke="#6b7a73" stroke-width="3" stroke-linecap="round" opacity="0.5"/><line x1="274.0" y1="275.8" x2="401.6" y2="275.8" stroke="#6b7a73" stroke-width="3" stroke-linecap="round" opacity="0.5"/><line x1="738.0" y1="275.8" x2="865.6" y2="275.8" stroke="#6b7a73" stroke-width="3" stroke-linecap="round" opacity="0.5"/><line x1="42.0" y1="328.2" x2="169.6" y2="328.2" stroke="#6b7a73" stroke-width="3" stroke-linecap="round" opacity="0.5"/><line x1="506.0" y1="328.2" x2="633.6" y2="328.2" stroke="#6b7a73" stroke-width="3" stroke-linecap="round" opacity="0.5"/><line x1="738.0" y1="328.2" x2="865.6" y2="328.2" stroke="#6b7a73" stroke-width="3" stroke-linecap="round" opacity="0.5"/><line x1="274.0" y1="380.6" x2="401.6" y2="380.6" stroke="#6b7a73" stroke-width="3" stroke-linecap="round" opacity="0.5"/><line x1="506.0" y1="380.6" x2="633.6" y2="380.6" stroke="#6b7a73" stroke-width="3" stroke-linecap="round" opacity="0.5"/><line x1="42.0" y1="433.0" x2="169.6" y2="433.0" stroke="#6b7a73" stroke-width="3" stroke-linecap="round" opacity="0.5"/><line x1="274.0" y1="433.0" x2="401.6" y2="433.0" stroke="#6b7a73" stroke-width="3" stroke-linecap="round" opacity="0.5"/><line x1="738.0" y1="433.0" x2="865.6" y2="433.0" stroke="#6b7a73" stroke-width="3" stroke-linecap="round" opacity="0.5"/></svg>