<svg viewBox="0 0 1000 580" xmlns="http://www.w3.org/2000/svg" font-family="IBM Plex Sans, Arial, sans-serif">
<rect x="0" y="0" width="1000" height="580" fill="#ffffff"/>
<rect x="0.5" y="0.5" width="999" height="579" fill="none" stroke="#c7cfc9"/>
<text x="24" y="34" font-family="IBM Plex Sans, Arial, sans-serif" font-size="20" font-weight="700" fill="#2b3330">Ventes / Commerce -- Clients et remises</text>
<text x="976" y="34" text-anchor="end" font-family="IBM Plex Mono, monospace" font-size="12" fill="#6b7a73">page 3 / 4</text>
<line x1="24" y1="46" x2="976" y2="46" stroke="#c7cfc9" stroke-width="1.5"/>
<text x="976" y="566" text-anchor="end" font-family="IBM Plex Mono, monospace" font-size="10.5" fill="#6b7a73">wireframe -- pas une capture reelle, a remplacer une fois le rapport construit</text>
<rect x="24" y="54" width="61" height="20" rx="10" fill="#f3f5f3" stroke="#c7cfc9"/><text x="55" y="68" text-anchor="middle" font-family="IBM Plex Mono, monospace" font-size="9.5" fill="#6b7a73">Periode</text><rect x="93.4" y="54" width="61" height="20" rx="10" fill="#f3f5f3" stroke="#c7cfc9"/><text x="124" y="68" text-anchor="middle" font-family="IBM Plex Mono, monospace" font-size="9.5" fill="#6b7a73">Domaine</text><rect x="162.8" y="54" width="43" height="20" rx="10" fill="#f3f5f3" stroke="#c7cfc9"/><text x="184" y="68" text-anchor="middle" font-family="IBM Plex Mono, monospace" font-size="9.5" fill="#6b7a73">Role</text>
<rect x="24" y="84" width="228" height="70" rx="6" fill="#f3f5f3" stroke="#c7cfc9"/>
<text x="34" y="102" font-family="IBM Plex Mono, monospace" font-size="10.5" font-weight="600" letter-spacing="0.4" fill="#1f6f68">SCORECARD</text>

<text x="138.0" y="125.0" text-anchor="middle" font-family="IBM Plex Mono, monospace" font-size="22" font-weight="700" fill="#2b3330">314</text>
<text x="138.0" y="144" text-anchor="middle" font-family="IBM Plex Sans, Arial, sans-serif" font-size="10" fill="#6b7a73">Clients</text>

<rect x="260" y="84" width="228" height="70" rx="6" fill="#f3f5f3" stroke="#c7cfc9"/>
<text x="270" y="102" font-family="IBM Plex Mono, monospace" font-size="10.5" font-weight="600" letter-spacing="0.4" fill="#1f6f68">SCORECARD</text>

<text x="374.0" y="125.0" text-anchor="middle" font-family="IBM Plex Mono, monospace" font-size="22" font-weight="700" fill="#2b3330">28</text>
<text x="374.0" y="144" text-anchor="middle" font-family="IBM Plex Sans, Arial, sans-serif" font-size="10" fill="#6b7a73">Doublons probables</text>

<rect x="496" y="84" width="228" height="70" rx="6" fill="#f3f5f3" stroke="#c7cfc9"/>
<text x="506" y="102" font-family="IBM Plex Mono, monospace" font-size="10.5" font-weight="600" letter-spacing="0.4" fill="#1f6f68">SCORECARD</text>

<text x="610.0" y="125.0" text-anchor="middle" font-family="IBM Plex Mono, monospace" font-size="22" font-weight="700" fill="#2b3330">3 / 16 (19 %)</text>
<text x="610.0" y="144" text-anchor="middle" font-family="IBM Plex Sans, Arial, sans-serif" font-size="10" fill="#6b7a73">Remises rapprochees</text>

<rect x="24" y="166" width="600" height="300" rx="6" fill="#f3f5f3" stroke="#c7cfc9"/>
<text x="34" y="184" font-family="IBM Plex Mono, monospace" font-size="10.5" font-weight="600" letter-spacing="0.4" fill="#1f6f68">MATRICE -- CLIENTS (DOUBLON PROBABLE FLAGUE, JAMAIS FUSIONNE)</text>
<rect x="36" y="192" width="576" height="52.4" fill="#c7cfc9" opacity="0.6"/><line x1="36" y1="192.0" x2="612" y2="192.0" stroke="#c7cfc9"/><line x1="36" y1="244.4" x2="612" y2="244.4" stroke="#c7cfc9"/><line x1="36" y1="296.8" x2="612" y2="296.8" stroke="#c7cfc9"/><line x1="36" y1="349.2" x2="612" y2="349.2" stroke="#c7cfc9"/><line x1="36" y1="401.6" x2="612" y2="401.6" stroke="#c7cfc9"/><line x1="36.0" y1="192" x2="36.0" y2="454.0" stroke="#c7cfc9"/><line x1="180.0" y1="192" x2="180.0" y2="454.0" stroke="#c7cfc9"/><line x1="324.0" y1="192" x2="324.0" y2="454.0" stroke="#c7cfc9"/><line x1="468.0" y1="192" x2="468.0" y2="454.0" stroke="#c7cfc9"/><line x1="612.0" y1="192" x2="612.0" y2="454.0" stroke="#c7cfc9"/><line x1="42.0" y1="275.8" x2="121.2" y2="275.8" stroke="#6b7a73" stroke-width="3" stroke-linecap="round" opacity="0.5"/><line x1="186.0" y1="275.8" x2="265.2" y2="275.8" stroke="#6b7a73" stroke-width="3" stroke-linecap="round" opacity="0.5"/><line x1="474.0" y1="275.8" x2="553.2" y2="275.8" stroke="#6b7a73" stroke-width="3" stroke-linecap="round" opacity="0.5"/><line x1="42.0" y1="328.2" x2="121.2" y2="328.2" stroke="#6b7a73" stroke-width="3" stroke-linecap="round" opacity="0.5"/><line x1="330.0" y1="328.2" x2="409.2" y2="328.2" stroke="#6b7a73" stroke-width="3" stroke-linecap="round" opacity="0.5"/><line x1="474.0" y1="328.2" x2="553.2" y2="328.2" stroke="#6b7a73" stroke-width="3" stroke-linecap="round" opacity="0.5"/><line x1="186.0" y1="380.6" x2="265.2" y2="380.6" stroke="#6b7a73" stroke-width="3" stroke-linecap="round" opacity="0.5"/><line x1="330.0" y1="380.6" x2="409.2" y2="380.6" stroke="#6b7a73" stroke-width="3" stroke-linecap="round" opacity="0.5"/><line x1="42.0" y1="433.0" x2="121.2" y2="433.0" stroke="#6b7a73" stroke-width="3" stroke-linecap="round" opacity="0.5"/><line x1="186.0" y1="433.0" x2="265.2" y2="433.0" stroke="#6b7a73" stroke-width="3" stroke-linecap="round" opacity="0.5"/><line x1="474.0" y1="433.0" x2="553.2" y2="433.0" stroke="#6b7a73" stroke-width="3" stroke-linecap="round" opacity="0.5"/>
<rect x="636" y="166" width="340" height="300" rx="6" fill="#f3f5f3" stroke="#c7cfc9"/>
<text x="646" y="184" font-family="IBM Plex Mono, monospace" font-size="10.5" font-weight="600" letter-spacing="0.4" fill="#1f6f68">RAPPROCHEMENT REMISE -&gt; CLIENT (PG_TRGM)</text>
<text x="652" y="210.0" font-family="IBM Plex Mono, monospace" font-size="12" font-weight="700" fill="#2b3330">Seuil retenu</text><text x="652" y="225.0" font-family="IBM Plex Sans, Arial, sans-serif" font-size="10.5" fill="#6b7a73">similarite &gt;= 0.5</text><line x1="652" y1="234.0" x2="960" y2="234.0" stroke="#c7cfc9" stroke-dasharray="1 3"/><text x="652" y="292.0" font-family="IBM Plex Mono, monospace" font-size="12" font-weight="700" fill="#2b3330">Pourquoi pas 0.4</text><text x="652" y="307.0" font-family="IBM Plex Sans, Arial, sans-serif" font-size="10.5" fill="#6b7a73">faux positifs sur suffixe juridique commun (Sarl/SARL)</text><line x1="652" y1="316.0" x2="960" y2="316.0" stroke="#c7cfc9" stroke-dasharray="1 3"/><text x="652" y="374.0" font-family="IBM Plex Mono, monospace" font-size="12" font-weight="700" fill="#2b3330">Remise non rattachee</text><text x="652" y="389.0" font-family="IBM Plex Sans, Arial, sans-serif" font-size="10.5" fill="#6b7a73">montant net = montant HT, jamais de remise devinee</text><line x1="652" y1="398.0" x2="960" y2="398.0" stroke="#c7cfc9" stroke-dasharray="1 3"/></svg>